<?xml version="1.0" encoding="utf-8"?>
<!-- Generator: Adobe Illustrator 19.0.0, SVG Export Plug-In . SVG Version: 6.00 Build 0)  -->
<!DOCTYPE svg PUBLIC "-//W3C//DTD SVG 1.1//EN" "http://www.w3.org/Graphics/SVG/1.1/DTD/svg11.dtd">
<svg version="1.1" id="Layer_1" xmlns="http://www.w3.org/2000/svg" xmlns:xlink="http://www.w3.org/1999/xlink" x="0px" y="0px"
	 viewBox="0 0 378 220" enable-background="new 0 0 378 220" xml:space="preserve">
<g id="XMLID_116_" opacity="0.9">
	<polygon id="XMLID_177_" fill="#FFFFFF" points="174.1,49.7 174.3,49.7 201.1,95.7 219.4,95.7 219.4,22.6 202.7,22.6 202.7,69.3 
		202.5,69.3 175.9,22.6 157.4,22.6 157.4,95.7 174.1,95.7 174.1,49.7 	"/>
	<path id="XMLID_117_" fill="#FFFFFF" d="M342.9,105.5c-1.8,0.9-3.8,1.4-5.8,1.4c-3.5,0-6.8-1.4-9.1-3.9l14.2-7.4l-3.4-6.6
		l-14.2,7.4c-0.4-2-0.3-4.1,0.4-6.2c1-3.2,3.3-5.9,6.3-7.4c0.7-0.4,2.2-0.8,4.9-0.8c5.9,0,13.5,2.1,17.8,3.4
		C351.4,93.4,346.9,103.4,342.9,105.5L342.9,105.5z M297.2,50c0.5-4.4,8.3-12.1,14.8-17.4c5.2,6.6,11,15.9,10.4,20.3
		c-0.7,5.7-5,10.1-10.4,11.1l1.9-15.9l-7.3-0.9l-1.9,15.9C299.8,61,296.6,55.7,297.2,50L297.2,50z M302.8,116.9
		c0.6-0.5,1.4-0.7,2.2-0.7c2.3,0,5.1,1.6,7,4c1.5,1.9,2.3,4.1,2.4,6.1c0,0.9-0.1,2.7-1.4,3.7c-0.6,0.5-1.3,0.7-2.2,0.7
		c-2.3,0-5.1-1.6-7-4C301.1,123.2,300.6,118.6,302.8,116.9L302.8,116.9z M282,104l-9.9-12.6l-5.8,4.6l9.9,12.6
		c-1.5,0.6-3,0.9-4.6,0.9c-3.9,0-7.6-1.8-10-4.8c-2.8-3.5-2.7-14.4-1.8-22.8c8.3,1,19,3.5,21.8,7C285.1,93.3,285.1,99.5,282,104
		L282,104z M276.8,167.6c2.1,4-0.1,14.7-2.6,22.7c-8-2.6-18-7-20-11c-2.6-5.1-1.5-11.2,2.4-15l7.4,14.2l6.6-3.4l-7.4-14.2
		c0.8-0.1,1.5-0.2,2.3-0.2C270.2,160.7,274.6,163.4,276.8,167.6L276.8,167.6z M123.8,179.3c-2.1,4-12,8.4-20,11
		c-2.5-8-4.7-18.7-2.6-22.7c2.2-4.2,6.5-6.9,11.3-6.9c0.8,0,1.5,0.1,2.3,0.2l-7.4,14.2l6.6,3.4l7.4-14.2c1.5,1.4,2.6,3.2,3.2,5.3
		C125.7,172.9,125.4,176.3,123.8,179.3L123.8,179.3z M93.8,98.2c-0.4-3.4,0.5-6.7,2.7-9.4c2.8-3.5,13.4-6,21.8-7
		c1,8.3,1,19.3-1.8,22.8c-2.4,3.1-6.1,4.8-10,4.8c-1.6,0-3.2-0.3-4.6-0.9l9.9-12.6l-5.8-4.6L96,104C94.8,102.3,94.1,100.3,93.8,98.2
		L93.8,98.2z M74.2,126.7c-1.9,2.4-4.6,4-7,4c-0.9,0-1.7-0.2-2.2-0.7c-2.2-1.7-1.8-6.3,0.9-9.8c1.9-2.4,4.6-4,7-4
		c0.9,0,1.7,0.2,2.2,0.7C77.4,118.6,76.9,123.2,74.2,126.7L74.2,126.7z M71.3,47.3L64,48.1L65.9,64c-5.4-1-9.7-5.4-10.4-11.1
		c-0.5-4.4,5.2-13.7,10.4-20.3c6.6,5.2,14.3,12.9,14.8,17.4c0.4,3.4-0.5,6.7-2.7,9.4c-1.3,1.7-3,3-4.9,3.8L71.3,47.3L71.3,47.3z
		 M53.4,96.5l-14.2-7.4l-3.4,6.6L50,103c-2.4,2.4-5.6,3.9-9.1,3.9c-2,0-4-0.5-5.8-1.4c-4-2.1-8.4-12-11-20C28.3,84.1,36,82,41.9,82
		c2.7,0,4.2,0.4,4.9,0.8c3,1.6,5.3,4.2,6.3,7.4C53.7,92.3,53.8,94.4,53.4,96.5L53.4,96.5z M130.8,118.6c1.9-2.4,4.6-4,7-4
		c0.9,0,1.7,0.2,2.2,0.7c1.3,1,1.4,2.7,1.4,3.7c0,2-0.9,4.2-2.4,6.1c-1.9,2.4-4.6,4-7,4c-0.9,0-1.7-0.2-2.3-0.7
		c-1.3-1-1.4-2.7-1.4-3.7C128.5,122.7,129.3,120.4,130.8,118.6L130.8,118.6z M144.5,138.8c2.3,0.7,4.3,2,5.5,3.6
		c0.6,0.8,1.4,2.3,1,3.8c-0.6,1.9-3,3.2-6.1,3.2c-1.1,0-2.3-0.2-3.4-0.5c-4.2-1.3-7.2-4.7-6.5-7.4c0.6-1.9,3-3.2,6.1-3.2
		C142.2,138.3,143.4,138.5,144.5,138.8L144.5,138.8z M248.2,128.3c-0.6,0.5-1.4,0.7-2.2,0.7c-2.3,0-5.1-1.6-7-4
		c-2.7-3.5-3.2-8-1-9.8c0.6-0.5,1.4-0.7,2.2-0.7c2.3,0,5.1,1.6,7,4C249.9,122,250.4,126.6,248.2,128.3L248.2,128.3z M236.5,148.9
		c-1.1,0.3-2.3,0.5-3.4,0.5c-3.1,0-5.5-1.3-6.1-3.2c-0.8-2.7,2.2-6.1,6.5-7.4c1.1-0.3,2.3-0.5,3.4-0.5c3.1,0,5.5,1.3,6.1,3.2
		C243.7,144.2,240.7,147.6,236.5,148.9L236.5,148.9z M336.1,74.6c-3.4,0-6.1,0.5-8.3,1.7c-4.8,2.5-8.3,6.6-9.9,11.8
		c-0.8,2.6-1.1,5.3-0.9,7.9c-3.5,0-7.6,0.4-11.6,1.9c2.7-8.3,4.7-17.1,5.8-26.3c9.6-0.6,17.5-8,18.6-17.7c0.6-4.7-1.7-10.8-6.9-18.8
		c-3.6-5.5-7.3-9.7-7.4-9.9l-2.2-2.6l-2.7,2c-0.2,0.1-4.8,3.4-9.5,7.9c-6.9,6.5-10.5,12-11.1,16.6c-1.1,9.8,4.9,18.7,14,21.5
		c-1.7,13.6-5.2,26.2-10.5,37.7c-0.2,0.3-0.3,0.6-0.4,1c-1.3,2.7-2.7,5.4-4.2,8c-0.6-2.5-1.5-4.8-2.5-6.9c6.7-7.1,7.3-18.3,1.1-26.2
		c-2.9-3.7-8.9-6.4-18.2-8.4c-6.4-1.3-12-1.7-12.3-1.8l-3.4-0.2l-0.5,3.3c0,0.2-0.9,5.8-1.1,12.4c-0.3,9.5,1,15.9,3.9,19.6
		c3.8,4.9,9.6,7.6,15.8,7.6c3,0,5.9-0.7,8.6-2c2.1,4.7,3.4,11.3-1.5,17l0.1,0.1c-1.1,1.3-2.2,2.7-3.3,4c-1.9,2.1-3.8,4.1-5.8,6.1
		c-0.7,0.5-1.4,1.1-2.1,1.8l0.1,0.1c-2.4,2.2-4.9,4.4-7.5,6.4c0.4-7-2.6-13.6-5.6-18c3.8-4.7,3.3-12.3-1.4-18.4
		c-3.4-4.3-8.1-6.9-12.8-6.9c-2.5,0-4.9,0.8-6.8,2.3c-5.6,4.3-5.7,13.2-0.3,20.1c0.4,0.6,0.9,1.1,1.4,1.6c-1,0.1-2.1,0.3-3.1,0.7
		c-8.4,2.5-13.5,9.8-11.4,16.6c0.8,2.7,2.6,4.9,5.1,6.4c2.3,1.4,5.1,2.1,8,2.1c1.8,0,3.7-0.3,5.5-0.8c8.4-2.5,13.5-9.8,11.4-16.6
		c0-0.1,0-0.1-0.1-0.2c2.5,4.6,5,12.4-0.6,18.9l0,0c-7.5,4.9-15.6,9.2-24.5,13c-12.6,5.4-25,9-35.9,11.4c-10.8-2.4-23.1-6-35.6-11.3
		c-8.9-3.8-17.2-8.2-24.7-13.1l0,0c-5.6-6.5-3.1-14.3-0.6-18.9c0,0.1,0,0.1-0.1,0.2c-2,6.8,3,14.1,11.4,16.6
		c1.8,0.5,3.7,0.8,5.5,0.8c3,0,5.7-0.7,8-2.1c2.6-1.5,4.3-3.7,5.1-6.4c1-3.4,0.2-7.1-2.2-10.3c-2.2-2.9-5.5-5.1-9.3-6.3
		c-1-0.3-2-0.5-3.1-0.7c0.5-0.5,0.9-1,1.4-1.6c2.5-3.2,3.8-6.9,3.9-10.5c0.1-4-1.5-7.5-4.3-9.6c-1.9-1.5-4.2-2.3-6.8-2.3
		c-4.7,0-9.5,2.6-12.8,6.9c-2.5,3.2-3.8,6.9-3.9,10.5c-0.1,3,0.8,5.8,2.5,7.9c-3,4.3-6,11-5.6,18c-2.6-2.1-5.1-4.2-7.5-6.4l0.1-0.1
		c-0.7-0.7-1.4-1.2-2.1-1.8c-2-2-3.9-4-5.8-6c-1.2-1.3-2.3-2.7-3.4-4l0.1-0.1c-4.9-5.7-3.6-12.4-1.5-17c2.7,1.3,5.6,2,8.6,2
		c6.2,0,12-2.8,15.8-7.6c2.9-3.7,4.2-10.1,3.9-19.6c-0.2-6.5-1.1-12.1-1.1-12.4l-0.5-3.3l-3.4,0.2c-0.2,0-5.9,0.4-12.3,1.8
		c-9.3,1.9-15.3,4.6-18.2,8.4c-3.3,4.2-4.8,9.5-4.2,14.8c0.5,4.3,2.3,8.3,5.3,11.4c-1,2.1-1.9,4.4-2.5,6.9c-1.5-2.6-2.9-5.3-4.2-8
		c-0.1-0.3-0.3-0.6-0.4-0.9c-5.3-11.5-8.9-24.1-10.5-37.7c3.9-1.2,7.3-3.5,9.8-6.7c3.3-4.2,4.8-9.5,4.2-14.8
		C87.5,44.5,83.9,39,77,32.5c-4.8-4.5-9.3-7.8-9.5-7.9l-2.7-2l-2.2,2.6c-0.2,0.2-3.8,4.5-7.4,9.9c-5.2,7.9-7.5,14.1-6.9,18.8
		c1.1,9.7,9,17.1,18.6,17.7c1.1,9.2,3.1,18,5.8,26.3c-4-1.5-8.1-2-11.6-1.9c0.2-2.6,0-5.3-0.9-7.9c-1.6-5.1-5.2-9.3-9.9-11.8
		c-2.1-1.1-4.9-1.7-8.3-1.7c-10,0-23.1,4.8-23.7,5L15,80.8l0.9,3.3c0.1,0.2,1.5,5.7,4.1,11.7c3.7,8.8,7.5,14.1,11.7,16.3
		c2.8,1.5,6,2.3,9.2,2.3c7.5,0,14.3-4.1,17.8-10.7c2.4-0.2,12.6-0.8,17.8,5.9c-1.1-0.4-2.3-0.6-3.6-0.6c-4.7,0-9.5,2.6-12.8,6.9
		c-5.4,6.9-5.2,15.8,0.3,20.1c1.9,1.5,4.2,2.3,6.8,2.3c4.7,0,9.5-2.6,12.8-6.9c2.1-2.7,3.3-5.6,3.8-8.5c3.2,5.4,6.9,10.5,10.9,15.4
		c-6.9,0.4-13.2,3.6-16.8,6.4l4.5,5.9c0.5-0.4,12-8.9,21.3-2.6c2,2,4.2,3.9,6.4,5.8c-6.6,0.8-12.4,4.8-15.5,10.7
		c-2.2,4.2-2.2,10.7-0.1,20c1.4,6.4,3.4,11.7,3.5,11.9l1.2,3.2l3.3-0.9c0.2-0.1,5.7-1.5,11.7-4.1c8.8-3.7,14.1-7.5,16.3-11.7
		c2.3-4.4,2.8-9.4,1.7-13.9c5.8,3.3,11.9,6.3,18.4,9.1c7.3,3.1,14.4,5.6,21.3,7.7c-10.3,1.5-16.9,1.7-17,1.7l0.2,7.4
		c0.9,0,14.8-0.4,34.1-4.6c19.3,4.2,33.2,4.6,34.1,4.6l0.2-7.4c-0.1,0-6.7-0.2-17-1.7c6.8-2.1,14-4.6,21.3-7.7
		c6.5-2.8,12.6-5.8,18.3-9.1c-1.1,4.5-0.6,9.4,1.7,13.9c2.2,4.2,7.5,8,16.3,11.7c6,2.5,11.5,4,11.7,4.1l3.3,0.9l1.2-3.2
		c0.1-0.2,2-5.5,3.5-11.9c2.1-9.3,2-15.8-0.1-20c-3.1-6-8.9-9.9-15.4-10.7c2.2-1.9,4.3-3.8,6.3-5.8c9.3-6.3,20.8,2.2,21.3,2.6
		l4.5-5.9c-3.6-2.8-9.9-6-16.8-6.4c4.1-4.9,7.7-10,10.9-15.4c0.4,2.9,1.7,5.8,3.8,8.5c3.3,4.3,8.1,6.9,12.8,6.9
		c2.5,0,4.9-0.8,6.8-2.3c2.8-2.2,4.3-5.7,4.3-9.6c-0.1-3.6-1.5-7.3-3.9-10.5c-3.4-4.3-8.1-6.9-12.8-6.9c-1.3,0-2.5,0.2-3.6,0.6
		c5.3-6.7,15.4-6.1,17.9-5.9c3.5,6.6,10.3,10.8,17.8,10.8h0c3.2,0,6.4-0.8,9.2-2.3c4.2-2.2,8-7.5,11.7-16.3c2.5-6,4-11.5,4.1-11.7
		l0.9-3.3l-3.2-1.2C359.2,79.4,346.1,74.6,336.1,74.6L336.1,74.6z"/>
</g>
</svg>
