<?xml version="1.0" encoding="utf-8"?>
<!-- Generator: Adobe Illustrator 19.0.0, SVG Export Plug-In . SVG Version: 6.00 Build 0)  -->
<!DOCTYPE svg PUBLIC "-//W3C//DTD SVG 1.1//EN" "http://www.w3.org/Graphics/SVG/1.1/DTD/svg11.dtd">
<svg version="1.1" id="Layer_1" xmlns="http://www.w3.org/2000/svg" xmlns:xlink="http://www.w3.org/1999/xlink" x="0px" y="0px"
	 viewBox="0 0 280 80" enable-background="new 0 0 280 80" xml:space="preserve">
<g id="XMLID_2_">
	<polygon id="XMLID_51_" fill="#FFFFFF" points="21.9,20.9 21.8,20.9 11.8,3.2 4.8,3.2 4.8,30.9 11.1,30.9 11.1,13.5 11.2,13.5 
		21.3,30.9 28.2,30.9 28.2,3.2 21.9,3.2 21.9,20.9 	"/>
	<path id="XMLID_48_" fill="#FFFFFF" d="M60.8,21.4L64.2,10h0.1l3.4,11.4H60.8L60.8,21.4z M60.6,3.2L50.4,30.9h7.4l1.4-4.3h10.2
		l1.4,4.3h7.4L67.8,3.2H60.6L60.6,3.2z"/>
	<polygon id="XMLID_47_" fill="#FFFFFF" points="115.4,23.8 115.3,23.8 110.4,3.2 100.3,3.2 100.3,30.9 106.6,30.9 106.6,9.4 
		106.6,9.4 112.3,30.9 118.3,30.9 123.8,9.4 123.9,9.4 123.9,30.9 130.4,30.9 130.4,3.2 120.4,3.2 115.4,23.8 	"/>
	<polygon id="XMLID_46_" fill="#FFFFFF" points="178.4,9.4 178.5,9.4 178.5,30.9 185,30.9 185,3.2 175,3.2 170,23.8 169.9,23.8 
		165,3.2 154.9,3.2 154.9,30.9 161.2,30.9 161.2,9.4 161.2,9.4 166.9,30.9 173,30.9 178.4,9.4 	"/>
	<path id="XMLID_43_" fill="#FFFFFF" d="M217.8,25.8c-5.4,0-7.1-4.7-7.1-8.8c0-6.2,3-8.8,7.1-8.8c5.1,0,7.1,4.4,7.1,8.8
		C224.8,21.3,222.9,25.8,217.8,25.8L217.8,25.8z M217.8,2.5c-8.8,0-14,6.8-14,14.6s5.2,14.6,14,14.6c8.8,0,14-6.8,14-14.6
		S226.6,2.5,217.8,2.5L217.8,2.5z"/>
	<path id="XMLID_42_" fill="#FFFFFF" d="M274.7,21.8c0-5.3-4.5-7-10.1-7.9l-2.6-0.4c-2.6-0.4-3.8-1.2-3.8-2.6c0-1.8,2.3-2.8,3.9-2.8
		c2.9,0,5.6,1.3,7.4,3.5l5.2-3.8c-3.1-3.5-7.6-5.3-12.2-5.3c-5.9,0-11.3,2.8-11.3,9.4c0,4.1,2.8,6.8,7.9,7.6l5.7,0.9
		c2.1,0.3,3.1,1,3.1,2.4c0,2.4-3.3,3.2-5.2,3.2c-3.3,0-5.6-1.3-8-3.5l-5.3,3.4c3.8,4.1,7.8,5.6,12.5,5.6
		C267.2,31.7,274.7,30.1,274.7,21.8L274.7,21.8z"/>
	<path id="XMLID_41_" fill="#FFFFFF" d="M45,67.2c-1.1-0.9-2.5-1.9-3.7-2.7c-0.9-0.7-1.7-1.2-2.3-1.6c-1.7-1.4-2.2-2.4-1.8-3.7
		c0.5-1.3,1.8-1.7,2.8-1.7c0.1,0,0.1,0,0.2,0c2.1,0,3.2,0.9,3.6,2.8c0,0.1,0.1,0.2,0.2,0.2l0.8,0c0.1,0,0.2-0.1,0.2-0.2l-0.3-2.9
		c0-0.2-0.1-0.3-0.3-0.4c-1.4-0.8-2.9-1.2-4.5-1.2c-3.1,0-5.3,1.6-6,4.2c-0.6,2.5,0.3,4.3,2.9,6.1l0.7,0.5c2,1.4,3.5,2.3,4.7,3.4
		c0.7,0.7,0.8,1.5,0.7,2.1c-0.2,1.1-0.9,2.2-1.5,2.5c-0.6,0.3-1.2,0.4-1.9,0.4c-1.8,0-3.7-1.1-4-3.6c0-0.1-0.1-0.2-0.2-0.3
		c-0.1,0-0.3-0.1-0.9-0.1h-0.1l0,0c-0.1,0.1-0.1,0.3-0.1,0.3l-0.2,3.4l0,0.1l0,0.1c1,1,3,1.9,5.3,1.9c0.9,0,1.8-0.1,2.7-0.4
		c2.5-0.8,4.3-2.6,4.6-4.6C47.2,69.8,46.5,68.3,45,67.2L45,67.2z"/>
	<path id="XMLID_40_" fill="#FFFFFF" d="M74.9,56.1c-1.3,0-7.4,0-8.6,0c-1.2,0-7.3,0-8.6,0c-0.1,0-0.2,0-0.2,0.1l0,0
		c0,0.1-0.7,2.9-1.2,4.6c0,0.2,0.1,0.3,0.2,0.3H57c0.2,0,0.3-0.1,0.3-0.2c1.2-2.6,2-3.4,4.4-3.4l2.9,0v14.5c0,2.5-3,2.5-3.3,2.5
		c-0.2,0-0.3,0.2-0.3,0.2c0,0.7,0,0.9,0,1c0,0.1,0,0.1,0.1,0.2c0.1,0,0.2,0,0.2,0c1.8-0.1,4.9-0.1,5-0.1c0,0,3.2,0,5,0.1
		c0,0,0,0,0.1,0c0.1,0,0.2,0,0.2-0.1l0,0v-1c0-0.1-0.1-0.2-0.3-0.2c-0.3,0-3.4-0.1-3.4-2.5V57.6l2.9,0c2.5,0,3.3,0.8,4.4,3.4
		c0,0.1,0.1,0.2,0.3,0.2h0.5c0.1,0,0.3-0.1,0.2-0.3c-0.5-1.9-1-4.2-1.2-4.5C75.2,56.2,75.1,56.1,74.9,56.1L74.9,56.1z"/>
	<path id="XMLID_39_" fill="#FFFFFF" d="M97.9,56.1C97.8,56.1,97.8,56.1,97.9,56.1c-1.9,0.1-5,0.1-5.1,0.1c0,0-3.2,0-5-0.1
		c0,0-0.1,0-0.1,0c-0.1,0-0.2,0.1-0.2,0.2v1.1c0,0.1,0.1,0.2,0.3,0.2c0,0,0,0,0.1,0c0.1,0,0.2,0,0.4,0c1.1,0,2.9,0.3,2.9,2.5v12
		c0,2.2-1.8,2.5-2.9,2.5c-0.2,0-0.3,0-0.4,0c0,0-0.1,0-0.1,0c-0.2,0-0.3,0.2-0.3,0.2c0,0.7,0,0.9,0,1c0,0.1,0.1,0.2,0.2,0.2
		c0,0,0.1,0,0.1,0c1.8-0.1,5-0.1,5-0.1c0,0,3.2,0,4.9,0.1c0,0,0.1,0,0.1,0c0.1,0,0.2,0,0.2-0.1l0,0v-1c0-0.1-0.1-0.2-0.3-0.2
		c0,0,0,0-0.1,0c-0.1,0-0.2,0-0.4,0c-1.1,0-2.9-0.3-2.9-2.5v-12c0-1,0.4-1.7,1.1-2.1c0.6-0.3,1.3-0.4,1.8-0.4c0.2,0,0.3,0,0.4,0
		c0,0,0,0,0.1,0c0.3,0,0.3-0.2,0.3-0.2v-1.1l0,0C98.1,56.2,98,56.1,97.9,56.1L97.9,56.1z"/>
	<path id="XMLID_36_" fill="#FFFFFF" d="M121.3,68.4c0,4.2-2.7,5.2-3.8,5.5c-1.1,0.2-2.5-0.2-3.6-1.5c-0.5-0.6-0.7-1.4-0.8-1.9
		l6.1-3.4c1.3-0.7,2-1.4,2.1-1.9V68.4L121.3,68.4z M126.5,74.3c-0.9,0.1-1.9-0.8-1.9-5.4v-7.3c0,0,0-2.3-0.5-3.3
		c-0.6-1.1-2.2-4.4-8.6-2.1c-6.1,2.1-4.7,5.7-4.7,5.7c0,0.1,0.1,0.2,0.3,0.1l2.7-1.2c0,0,0.1,0,0-0.1c0,0-0.2-0.5-0.2-0.8
		c0-0.4,0-1,0.9-1.6c0.8-0.6,2-1,3-1c1.5,0,3.5,0.7,3.7,3.2c0,1.6,0.3,4-3.7,6.1l-7.7,4.1c-0.3,0.1-0.3,0.5-0.3,0.5s0.2,2.2,1.9,3.9
		c1.4,1.5,3.5,1.6,4.2,1.5c1.2-0.3,4.1-2.1,5.7-3.1c0.2,1.4,1,2.7,1.6,3c0.3,0.1,0.5,0.1,0.7,0.1c0,0,2.7-1.1,3-1.3
		c0.1-0.1,0.1,0,0-0.7C126.6,74.2,126.5,74.3,126.5,74.3L126.5,74.3z"/>
	<path id="XMLID_35_" fill="#FFFFFF" d="M155.3,56.1c-1.3,0-7.4,0-8.6,0c-1.2,0-7.3,0-8.6,0c-0.1,0-0.2,0-0.2,0.1l0,0
		c0,0.1-0.7,2.5-1.2,4.6c0,0.2,0.1,0.3,0.2,0.3h0.5c0.2,0,0.3-0.1,0.3-0.2c1.2-2.6,2-3.4,4.4-3.4l2.9,0v14.5c0,2.5-3,2.5-3.3,2.5
		c-0.2,0-0.3,0.2-0.3,0.2c0,0.7,0,0.9,0,1c0,0.1,0,0.1,0.1,0.2c0.1,0,0.2,0,0.2,0c1.8-0.1,4.9-0.1,5-0.1c0,0,3.2,0,5,0.1
		c0,0,0,0,0.1,0c0.1,0,0.2,0,0.2-0.1l0,0v-1c0-0.1-0.1-0.2-0.3-0.2c-0.4,0-3.4-0.1-3.4-2.5V57.6l2.9,0c2.5,0,3.3,0.8,4.4,3.4
		c0,0.1,0.1,0.2,0.3,0.2h0.5c0.1,0,0.3-0.1,0.2-0.3c-0.4-1.6-1-4.2-1.2-4.6C155.6,56.2,155.5,56.1,155.3,56.1L155.3,56.1z"/>
	<path id="XMLID_32_" fill="#FFFFFF" d="M181.9,73c-0.8,1-1.8,1.6-2.9,1.8c-0.2,0-0.4,0-0.7,0c-3.4,0-6.5-3.2-7.3-7.7
		c-0.5-2.8-0.1-5.6,1.3-7.5c0.9-1.2,2.1-2,3.4-2.3c0.3-0.1,0.7-0.1,1-0.1c3.9,0,6.3,3.7,6.8,7.4C184,67.9,183.4,71.1,181.9,73
		L181.9,73z M177.4,55.7c-0.6,0-1.3,0.1-1.9,0.2c-2.7,0.5-5,1.9-6.6,4.2c-1.6,2.3-2.2,5-1.7,7.7c0.9,5.1,5.2,8.7,10.4,8.7
		c0.5,0,1,0,1.5-0.1c2.5-0.3,4.6-1.5,6.2-3.5c1.8-2.4,2.6-5.5,2.1-8.7C186.7,59.2,182.6,55.7,177.4,55.7L177.4,55.7z"/>
	<path id="XMLID_29_" fill="#FFFFFF" d="M209.7,66.3c-1.4,0-3.2-0.4-3.2-1v-5.1c0-1.3,0.4-2.2,1.4-2.5c0.4-0.2,0.9-0.2,1.4-0.2
		c2.1,0,4.3,1.4,4.3,4.4C213.5,65.5,211.4,66.3,209.7,66.3L209.7,66.3z M221.1,74.7L221.1,74.7c-0.1,0-0.2,0-0.3,0
		c-0.5,0-1.9-0.4-3.9-3.7c-0.4-0.7-1.9-2.8-3.4-3.6c2.2-1,3.5-3.3,3.3-6.1c-0.3-4.8-5.2-5.3-7.3-5.3c-0.3,0-0.7,0-1,0
		c-1.8,0.2-4.1,0.3-4.2,0.3c0,0-0.4,0-1.1,0c-1,0-2.4,0-3.5-0.1l-0.1,0c-0.1,0-0.2,0.1-0.2,0.2c0,0.1,0,0.3,0,1c0,0.1,0,0.1,0,0.2
		c0,0,0.1,0.1,0.2,0.1c0,0,3.4,0,3.4,2.6v11.9c0,2.5-3,2.5-3.4,2.5c-0.2,0-0.3,0.2-0.3,0.2c0,0.7,0,0.9,0,1c0,0.1,0,0.1,0.1,0.1
		c0.1,0,0.2,0,0.2,0c1.8-0.1,4.5-0.1,4.5-0.1c0,0,3.7,0,5.5,0.1c0,0,0.1,0,0.1,0c0.1,0,0.2,0,0.2-0.1l0,0v-1c0-0.1-0.1-0.2-0.3-0.2
		c-0.2,0-1.9,0-2.9-1c-0.4-0.4-0.6-0.9-0.6-1.5l0-4.5c0.8,0.2,2.5,0.3,3.6,0.3c1.1,0,2.9,2.2,4,4.2c1.9,3.5,3.4,4.2,5.1,4.2
		c0.6,0,1.3-0.1,2-0.2c0.1,0,0.2-0.1,0.2-0.2v-0.9C221.4,74.9,221.4,74.7,221.1,74.7L221.1,74.7z"/>
	<g id="XMLID_20_">
		<path id="XMLID_28_" fill="#FFFFFF" d="M242,56.1C242,56.1,241.9,56.1,242,56.1c-1.9,0.1-5,0.1-5.1,0.1c0,0-3.2,0-5-0.1
			c0,0-0.1,0-0.1,0c-0.1,0-0.2,0.1-0.2,0.2v1.1c0,0.1,0.1,0.2,0.3,0.2c0,0,0,0,0.1,0c0.1,0,0.2,0,0.4,0c1.1,0,2.9,0.3,2.9,2.5v12
			c0,1-0.4,1.7-1.1,2.1c-0.6,0.3-1.3,0.4-1.8,0.4c-0.2,0-0.3,0-0.4,0c0,0-0.1,0-0.1,0c-0.2,0-0.3,0.2-0.3,0.2c0,0.7,0,0.9,0,1
			c0,0.1,0.1,0.2,0.2,0.2c0,0,0.1,0,0.1,0c1.8-0.1,5-0.1,5-0.1c0,0,3.2,0,4.9,0.1c0,0,0.1,0,0.1,0c0.1,0,0.2,0,0.2-0.1l0,0v-1
			c0-0.1-0.1-0.2-0.3-0.2c0,0,0,0-0.1,0c-0.1,0-0.2,0-0.4,0c-1.1,0-2.9-0.3-2.9-2.5v-12c0-2.2,1.8-2.5,2.9-2.5c0.2,0,0.3,0,0.4,0
			c0,0,0,0,0,0c0.3,0,0.3-0.2,0.3-0.2v-1.1l0,0C242.2,56.2,242.1,56.1,242,56.1L242,56.1z"/>
		<path id="XMLID_25_" fill="#FFFFFF" d="M269.2,73c-0.8,1-1.8,1.6-3,1.8c-0.2,0-0.4,0-0.7,0c-3.4,0-6.5-3.2-7.3-7.7
			c-0.5-2.8-0.1-5.6,1.3-7.5c0.9-1.2,2.1-2,3.4-2.3c0.3-0.1,0.7-0.1,1-0.1c3.9,0,6.2,3.7,6.8,7.4C271.2,67.9,270.6,71.1,269.2,73
			L269.2,73z M274.6,64.2c-0.7-5-4.8-8.5-10-8.5c-0.6,0-1.3,0.1-1.9,0.2c-2.7,0.5-5,1.9-6.6,4.2c-1.6,2.3-2.2,5-1.7,7.7
			c0.9,5.1,5.2,8.7,10.4,8.7c0.5,0,1,0,1.5-0.1c2.5-0.3,4.6-1.5,6.2-3.5C274.3,70.5,275.1,67.4,274.6,64.2L274.6,64.2z"/>
		<path id="XMLID_22_" fill="#FFFFFF" d="M14.1,56.9c1.2,0,2.3,0.4,3.1,1.3c0.9,0.9,1.3,2.2,1.3,2.9H9.1
			C10,58.4,11.9,56.9,14.1,56.9L14.1,56.9z M22.2,70.3c0-0.1-0.1-0.2-0.3-0.2c-0.2,0-0.2,0.1-0.3,0.1C21.3,71,19.1,73,15.9,73
			c-1.1,0-2.2-0.2-3.4-0.7c-4-1.5-4.5-6.6-3.9-9.6h13.3c0.2,0,0.3-0.1,0.4-0.3c0.1-0.1,0-0.4,0-0.6c-0.1-3.9-3.2-6.8-7.2-6.8
			c-1.2,0-2.5,0.3-3.8,0.8c-2.4,1-4.4,2.9-5.5,5.2c-1.5,3.3-1,7.1-0.4,8.7c1.1,2.7,3.1,4.8,5.5,5.6c1.2,0.4,2.4,0.6,3.5,0.6
			c5.2,0,7.5-4.4,7.9-5.3c0,0,0,0,0-0.1c0-0.1,0.1-0.1,0.1-0.2L22.2,70.3L22.2,70.3L22.2,70.3z"/>
	</g>
</g>
</svg>
