<?xml version="1.0" encoding="utf-8"?>
<!-- Generator: Adobe Illustrator 19.0.0, SVG Export Plug-In . SVG Version: 6.00 Build 0)  -->
<!DOCTYPE svg PUBLIC "-//W3C//DTD SVG 1.1//EN" "http://www.w3.org/Graphics/SVG/1.1/DTD/svg11.dtd">
<svg version="1.1" id="Layer_1" xmlns="http://www.w3.org/2000/svg" xmlns:xlink="http://www.w3.org/1999/xlink" x="0px" y="0px"
	 viewBox="0 0 300 260" enable-background="new 0 0 300 260" xml:space="preserve">
<g id="XMLID_14_">
	<polygon fill="#231F20" points="24,195.3 23.9,195.3 13.2,176.4 5.7,176.4 5.7,206 12.4,206 12.4,187.4 12.5,187.4 23.4,206 
		30.8,206 30.8,176.4 24,176.4 	"/>
	<path fill="#231F20" d="M65.5,176.4L54.6,206h7.9l1.5-4.7h10.9l1.5,4.7h7.9l-11.2-29.6H65.5z M65.7,195.8l3.7-12.2h0.1l3.7,12.2
		H65.7z"/>
	<polygon fill="#231F20" points="124.2,198.4 124.1,198.4 118.9,176.4 108,176.4 108,206 114.8,206 114.8,183 114.8,183 120.9,206 
		127.4,206 133.3,183 133.4,183 133.4,206 140.3,206 140.3,176.4 129.6,176.4 	"/>
	<polygon fill="#231F20" points="191.8,183 191.9,183 191.9,206 198.9,206 198.9,176.4 188.2,176.4 182.8,198.4 182.7,198.4 
		177.4,176.4 166.6,176.4 166.6,206 173.3,206 173.3,183 173.4,183 179.4,206 186,206 	"/>
	<path fill="#231F20" d="M234,175.5c-9.4,0-15,7.3-15,15.6c0,8.3,5.5,15.6,15,15.6c9.4,0,15-7.3,15-15.6
		C249,182.9,243.4,175.5,234,175.5z M234,200.6c-5.8,0-7.6-5.1-7.6-9.4c0-6.7,3.2-9.4,7.6-9.4c5.5,0,7.6,4.7,7.6,9.4
		C241.6,195.8,239.5,200.6,234,200.6z"/>
	<path fill="#231F20" d="M295,196.3c0-5.7-4.9-7.5-10.8-8.4l-2.8-0.5c-2.8-0.5-4.1-1.2-4.1-2.8c0-1.9,2.5-3,4.2-3
		c3.1,0,6,1.4,7.9,3.7l5.6-4c-3.3-3.7-8.2-5.7-13.1-5.7c-6.3,0-12.1,3-12.1,10.1c0,4.4,3,7.3,8.5,8.2l6.2,1c2.2,0.4,3.3,1.1,3.3,2.6
		c0,2.6-3.6,3.4-5.5,3.4c-3.5,0-6-1.4-8.6-3.7l-5.7,3.7c4,4.4,8.3,6,13.4,6C287,206.8,295,205.2,295,196.3z"/>
	<path fill="#231F20" d="M48.8,244.9c-1.2-1-2.7-2-4-2.9c-1-0.7-1.9-1.3-2.4-1.7c-1.9-1.5-2.4-2.6-1.9-4c0.5-1.4,1.9-1.9,3.1-1.9
		c0.1,0,0.1,0,0.2,0c2.2,0,3.5,1,3.9,3c0,0.1,0.1,0.2,0.2,0.2l0.9,0c0.1,0,0.2-0.1,0.2-0.2l-0.4-3.1c0-0.2-0.1-0.3-0.3-0.4
		c-1.5-0.8-3.2-1.3-4.8-1.3c-3.3,0-5.7,1.7-6.4,4.5c-0.6,2.6,0.3,4.6,3.1,6.5l0.7,0.5c2.2,1.5,3.7,2.5,5,3.7
		c0.8,0.7,0.9,1.6,0.8,2.2c-0.2,1.2-1,2.3-1.7,2.6c-0.6,0.3-1.3,0.5-2,0.5c-1.9,0-4-1.2-4.3-3.8c0-0.1-0.1-0.2-0.2-0.3
		c-0.1,0-0.3-0.1-0.9-0.1h-0.1l0,0.1c-0.1,0.1-0.1,0.3-0.1,0.3l-0.2,3.7l0,0.1l0.1,0.1c1,1,3.2,2.1,5.7,2.1c1,0,2-0.2,2.9-0.5
		c2.7-0.9,4.6-2.8,4.9-5C51.1,247.8,50.4,246.1,48.8,244.9z"/>
	<path fill="#231F20" d="M80.9,233.1c-1.4,0-7.9,0-9.2,0c-1.3,0-7.8,0-9.2,0c-0.1,0-0.2,0-0.3,0.1l0,0.1c0,0.1-0.8,3.1-1.3,5
		c0,0.2,0.1,0.3,0.3,0.3h0.5c0.2,0,0.3-0.1,0.3-0.2c1.3-2.8,2.1-3.6,4.8-3.6l3.1,0v15.6c0,2.6-3.2,2.7-3.6,2.7
		c-0.2,0-0.3,0.2-0.3,0.3c0,0.7,0,1,0,1.1c0,0.1,0,0.1,0.1,0.2c0.1,0,0.2,0,0.2,0c1.9-0.1,5.3-0.1,5.3-0.1c0,0,3.5,0,5.4,0.1
		c0,0,0.1,0,0.1,0c0.1,0,0.2-0.1,0.2-0.1l0,0v-1.1c0-0.1-0.1-0.3-0.3-0.3c-0.4,0-3.7-0.1-3.7-2.7v-15.6l3.1,0c2.7,0,3.5,0.8,4.8,3.6
		c0,0.1,0.1,0.2,0.3,0.2h0.5c0.1,0,0.3-0.1,0.3-0.3c-0.5-2-1.1-4.5-1.2-4.9C81.2,233.2,81.1,233.1,80.9,233.1z"/>
	<path fill="#231F20" d="M105.4,233.1C105.4,233.1,105.3,233.1,105.4,233.1c-2,0.1-5.4,0.1-5.4,0.1c0,0-3.4,0-5.3-0.1
		c0,0-0.1,0-0.1,0c-0.2,0-0.2,0.1-0.2,0.2v1.1c0,0.1,0.1,0.3,0.3,0.3c0,0,0,0,0.1,0c0.1,0,0.2,0,0.4,0c1.1,0,3.1,0.4,3.1,2.7v12.8
		c0,2.4-1.9,2.7-3.1,2.7c-0.2,0-0.4,0-0.4,0c0,0-0.1,0-0.1,0c-0.2,0-0.3,0.2-0.3,0.3c0,0.8,0,1,0,1.1c0,0.1,0.1,0.2,0.2,0.2
		c0,0,0.1,0,0.1,0c1.9-0.1,5.3-0.1,5.4-0.1c0,0,3.4,0,5.3,0.1c0,0,0.1,0,0.1,0c0.1,0,0.2-0.1,0.3-0.1l0,0v-1.1
		c0-0.1-0.1-0.3-0.4-0.3c0,0,0,0-0.1,0c-0.1,0-0.2,0-0.4,0c-1.2,0-3.1-0.4-3.1-2.7v-12.8c0-1.1,0.4-1.8,1.2-2.3
		c0.6-0.4,1.4-0.4,1.9-0.4c0.2,0,0.4,0,0.4,0c0,0,0.1,0,0.1,0c0.3,0,0.4-0.2,0.4-0.3v-1.2l0,0C105.7,233.1,105.6,233.1,105.4,233.1z
		"/>
	<path fill="#231F20" d="M136.1,252.5c-1,0.1-2.1-0.9-2.1-5.8v-7.8c0,0,0-2.5-0.5-3.5c-0.6-1.2-2.4-4.7-9.3-2.3
		c-6.5,2.3-5,6.1-5,6.1c0,0.1,0.1,0.2,0.3,0.1l2.9-1.3c0.1,0,0.1-0.1,0.1-0.2c0,0-0.2-0.6-0.2-0.9c0-0.4,0.1-1.1,1-1.8
		c0.9-0.7,2.1-1.1,3.3-1.1c1.7,0,3.7,0.7,4,3.5c0,1.8,0.3,4.3-3.9,6.5l-8.3,4.4c-0.4,0.1-0.3,0.5-0.3,0.5s0.3,2.4,2,4.2
		c1.5,1.6,3.8,1.7,4.5,1.6c1.3-0.3,4.4-2.3,6.1-3.4c0.2,1.5,1.1,2.9,1.8,3.3c0.3,0.1,0.5,0.1,0.7,0.1c0,0,2.9-1.1,3.3-1.3
		c0.2-0.1,0.2,0-0.1-0.8C136.2,252.5,136.1,252.5,136.1,252.5z M130.5,246.3c0,4.5-2.9,5.6-4.1,5.9c-1.2,0.3-2.7-0.2-3.8-1.7
		c-0.5-0.7-0.8-1.5-0.9-2l6.5-3.7c1.3-0.7,2.2-1.5,2.3-2.1V246.3z"/>
	<path fill="#231F20" d="M167,233.1c-1.4,0-7.9,0-9.2,0c-1.3,0-7.8,0-9.2,0c-0.1,0-0.2,0-0.3,0.1l0,0.1c0,0.1-0.7,2.7-1.2,5
		c0,0.2,0.1,0.3,0.3,0.3h0.5c0.2,0,0.3-0.1,0.3-0.2c1.3-2.8,2.1-3.6,4.8-3.6l3.1,0v15.6c0,2.6-3.2,2.7-3.6,2.7
		c-0.2,0-0.3,0.2-0.3,0.3c0,0.8,0,1,0,1.1c0,0.1,0,0.1,0.1,0.2c0.1,0,0.2,0,0.2,0c1.9-0.1,5.3-0.1,5.3-0.1c0,0,3.5,0,5.4,0.1
		c0,0,0.1,0,0.1,0c0.1,0,0.2-0.1,0.2-0.1l0,0v-1.1c0-0.1-0.1-0.3-0.3-0.3c-0.4,0-3.7-0.1-3.7-2.7v-15.6l3.1,0c2.7,0,3.5,0.8,4.8,3.6
		c0,0.1,0.1,0.2,0.3,0.2h0.5c0.1,0,0.3-0.1,0.3-0.3c-0.4-1.7-1.1-4.5-1.2-4.9C167.3,233.2,167.3,233.1,167,233.1z"/>
	<path fill="#231F20" d="M190.7,232.6c-0.7,0-1.4,0.1-2,0.2c-2.9,0.5-5.4,2.1-7.1,4.5c-1.7,2.4-2.4,5.4-1.8,8.3
		c1,5.5,5.5,9.4,11.2,9.4c0.5,0,1.1,0,1.6-0.1c2.7-0.3,5-1.6,6.6-3.8c1.9-2.5,2.8-5.9,2.3-9.3C200.6,236.3,196.2,232.6,190.7,232.6z
		 M195.6,251.2c-0.9,1.1-1.9,1.8-3.2,1.9c-0.2,0-0.5,0-0.7,0c-3.7,0-7-3.5-7.8-8.2c-0.6-3-0.1-6,1.3-8.1c0.9-1.3,2.2-2.2,3.7-2.4
		c0.4-0.1,0.8-0.1,1.1-0.1c4.2,0,6.7,4,7.3,7.9C197.8,245.7,197.1,249.1,195.6,251.2z"/>
	<path fill="#231F20" d="M237.6,253L237.6,253c-0.1,0-0.2,0-0.3,0c-0.6,0-2.1-0.4-4.2-4c-0.5-0.8-2-3-3.7-3.9c2.3-1,3.7-3.6,3.5-6.6
		c-0.3-5.1-5.5-5.7-7.8-5.7c-0.4,0-0.8,0-1.1,0c-2,0.2-4.4,0.3-4.5,0.3c0,0-0.5,0-1.2,0c-1.1,0-2.6,0-3.7-0.1l-0.1,0
		c-0.1,0-0.2,0.1-0.2,0.2c0,0.1,0,0.3,0,1.1c0,0.1,0,0.1,0,0.2c0,0.1,0.1,0.1,0.2,0.1c0,0,3.6,0,3.6,2.8v12.8c0,2.6-3.3,2.7-3.6,2.7
		c-0.2,0-0.3,0.2-0.3,0.3c0,0.7,0,1,0,1.1c0,0.1,0,0.1,0.1,0.2c0.1,0,0.2,0,0.2,0c1.9-0.1,4.8-0.1,4.9-0.1c0,0,3.9,0,5.8,0.1
		c0,0,0.1,0,0.1,0c0.1,0,0.2-0.1,0.3-0.1l0,0v-1.1c0-0.1-0.1-0.3-0.4-0.3c-0.2,0-2.1,0-3.1-1.1c-0.4-0.4-0.6-1-0.6-1.6l0-4.9
		c0.8,0.2,2.7,0.4,3.8,0.4c1.2,0,3.1,2.4,4.3,4.5c2,3.7,3.7,4.5,5.5,4.5c0.7,0,1.4-0.1,2.1-0.2c0.1,0,0.3-0.1,0.3-0.3v-1
		C237.9,253.2,237.9,253,237.6,253z M225.3,244c-1.5,0-3.5-0.4-3.5-1.1v-5.4c0-1.4,0.5-2.3,1.4-2.7c0.4-0.2,1-0.3,1.5-0.3
		c2.2,0,4.6,1.5,4.6,4.7C229.4,243.1,227.2,244,225.3,244z"/>
	<path fill="#231F20" d="M260,233.1C260,233.1,259.9,233.1,260,233.1c-2,0.1-5.4,0.1-5.4,0.1c0,0-3.4,0-5.3-0.1c0,0-0.1,0-0.1,0
		c-0.2,0-0.2,0.1-0.2,0.2v1.1c0,0.1,0.1,0.3,0.3,0.3c0,0,0,0,0.1,0c0.1,0,0.2,0,0.4,0c1.1,0,3.1,0.4,3.1,2.7v12.8
		c0,1.1-0.4,1.8-1.1,2.3c-0.6,0.4-1.4,0.4-1.9,0.4c-0.2,0-0.4,0-0.4,0c0,0-0.1,0-0.1,0c-0.2,0-0.3,0.2-0.3,0.3c0,0.7,0,1,0,1.1
		c0,0.1,0.1,0.2,0.2,0.2c0,0,0.1,0,0.1,0c1.9-0.1,5.3-0.1,5.4-0.1c0,0,3.4,0,5.3,0.1c0,0,0.1,0,0.1,0c0.1,0,0.2-0.1,0.3-0.1l0,0
		v-1.1c0-0.1-0.1-0.3-0.4-0.3c0,0,0,0-0.1,0c-0.1,0-0.2,0-0.4,0c-1.2,0-3.1-0.4-3.1-2.7v-12.8c0-2.4,2-2.7,3.1-2.7
		c0.2,0,0.4,0,0.4,0c0,0,0.1,0,0.1,0c0.3,0,0.4-0.2,0.4-0.3v-1.2l0,0C260.2,233.1,260.1,233.1,260,233.1z"/>
	<path fill="#231F20" d="M295,241.7c-0.8-5.4-5.2-9.1-10.7-9.1c-0.7,0-1.4,0.1-2,0.2c-2.9,0.5-5.4,2.1-7.1,4.5
		c-1.7,2.4-2.4,5.4-1.8,8.3c1,5.5,5.5,9.4,11.2,9.4c0.5,0,1.1,0,1.6-0.1c2.7-0.3,5-1.6,6.6-3.8C294.6,248.5,295.4,245.1,295,241.7z
		 M289.1,251.2c-0.9,1.1-1.9,1.8-3.2,1.9c-0.2,0-0.5,0-0.7,0c-3.7,0-7-3.5-7.8-8.2c-0.6-3-0.1-6,1.3-8.1c0.9-1.3,2.2-2.2,3.7-2.4
		c0.4-0.1,0.8-0.1,1.1-0.1c4.2,0,6.7,4,7.3,7.9C291.3,245.7,290.7,249.1,289.1,251.2z"/>
	<path fill="#231F20" d="M24.4,248.3c0-0.1-0.1-0.2-0.3-0.2c-0.2,0-0.3,0.1-0.3,0.1c-0.4,0.8-2.7,2.9-6.2,2.9
		c-1.2,0-2.4-0.2-3.6-0.7c-4.3-1.6-4.8-7.1-4.2-10.3h14.2c0.2,0,0.3-0.1,0.4-0.3c0.1-0.1,0-0.4,0-0.6c-0.1-4.1-3.4-7.3-7.8-7.3
		c-1.3,0-2.7,0.3-4,0.8c-2.5,1.1-4.7,3.2-5.8,5.6c-1.6,3.5-1.1,7.6-0.4,9.4c1.2,2.9,3.3,5.1,5.9,6c1.3,0.4,2.5,0.6,3.7,0.6
		c5.6,0,8-4.7,8.5-5.6c0,0,0-0.1,0-0.1c0-0.1,0.1-0.1,0.1-0.3L24.4,248.3L24.4,248.3z M15.7,233.9c1.3,0,2.4,0.5,3.3,1.4
		c1,1,1.4,2.4,1.4,3.1H10.2C11.2,235.6,13.2,233.9,15.7,233.9z"/>
	<polygon fill="#231F20" points="140.6,22.8 140.7,22.8 158.3,52.8 170.2,52.8 170.2,5 159.4,5 159.4,35.6 159.2,35.6 141.8,5 
		129.7,5 129.7,52.8 140.6,52.8 	"/>
	<path fill="#231F20" d="M246.6,39c-2.2,0-4,0.4-5.4,1.1c-3.1,1.6-5.4,4.3-6.5,7.7c-0.5,1.7-0.7,3.5-0.6,5.2c-2.3,0-5,0.3-7.6,1.3
		c1.8-5.4,3.1-11.2,3.8-17.2c6.3-0.4,11.4-5.3,12.2-11.6c0.4-3.1-1.1-7.1-4.5-12.3c-2.4-3.6-4.8-6.4-4.9-6.5L231.6,5l-1.8,1.3
		c-0.1,0.1-3.1,2.3-6.2,5.2c-4.5,4.3-6.9,7.8-7.2,10.9c-0.7,6.4,3.2,12.2,9.2,14.1c-1.1,8.9-3.4,17.1-6.9,24.7
		c-0.1,0.2-0.2,0.4-0.3,0.6c-0.8,1.8-1.8,3.5-2.7,5.2c-0.4-1.6-1-3.2-1.6-4.5c4.4-4.7,4.8-12,0.7-17.1c-1.9-2.4-5.8-4.2-11.9-5.5
		c-4.2-0.9-7.9-1.1-8-1.1l-2.2-0.2l-0.4,2.2c0,0.2-0.6,3.8-0.7,8.1c-0.2,6.2,0.7,10.4,2.6,12.8c2.5,3.2,6.3,5,10.3,5
		c2,0,3.9-0.4,5.6-1.3c1.4,3.1,2.2,7.4-1,11.1l0,0c-0.7,0.9-1.4,1.7-2.2,2.6c-1.2,1.4-2.5,2.7-3.8,4c-0.5,0.3-0.9,0.7-1.4,1.2
		l0.1,0.1c-1.6,1.4-3.2,2.8-4.9,4.2c0.3-4.6-1.7-8.9-3.6-11.8c2.5-3.1,2.2-8-0.9-12c-2.2-2.8-5.3-4.5-8.4-4.5
		c-1.7,0-3.2,0.5-4.4,1.5c-3.7,2.8-3.8,8.6-0.2,13.2c0.3,0.4,0.6,0.7,0.9,1c-0.7,0.1-1.3,0.2-2,0.4c-5.5,1.6-8.8,6.4-7.5,10.8
		c0.5,1.7,1.7,3.2,3.4,4.2c1.5,0.9,3.3,1.4,5.2,1.4c1.2,0,2.4-0.2,3.6-0.5c5.5-1.6,8.8-6.4,7.5-10.8c0,0,0-0.1,0-0.1
		c1.6,3,3.3,8.1-0.4,12.3l0,0c-4.9,3.2-10.2,6-16,8.5c-8.2,3.5-16.4,5.9-23.5,7.4c-7-1.6-15.1-3.9-23.3-7.4
		c-5.8-2.5-11.2-5.3-16.1-8.5l0,0c-3.7-4.3-2-9.3-0.4-12.3c0,0,0,0.1,0,0.1c-1.3,4.4,2,9.2,7.5,10.8c1.2,0.4,2.4,0.5,3.6,0.5
		c1.9,0,3.7-0.5,5.2-1.4c1.7-1,2.8-2.4,3.4-4.2c0.7-2.2,0.1-4.7-1.4-6.7c-1.4-1.9-3.6-3.3-6.1-4.1c-0.7-0.2-1.3-0.3-2-0.4
		c0.3-0.3,0.6-0.7,0.9-1c1.6-2.1,2.5-4.5,2.6-6.9c0.1-2.6-1-4.9-2.8-6.3c-1.2-1-2.8-1.5-4.4-1.5c-3.1,0-6.2,1.7-8.4,4.5
		c-1.6,2.1-2.5,4.5-2.6,6.9c0,2,0.5,3.8,1.6,5.1c-1.9,2.8-3.9,7.2-3.7,11.8c-1.7-1.4-3.3-2.8-4.9-4.2l0.1-0.1
		c-0.5-0.4-0.9-0.8-1.4-1.2c-1.3-1.3-2.6-2.6-3.8-3.9c-0.8-0.9-1.5-1.7-2.2-2.6l0,0c-3.2-3.7-2.4-8.1-1-11.1
		c1.8,0.8,3.7,1.3,5.6,1.3c4.1,0,7.8-1.8,10.3-5c1.9-2.4,2.8-6.6,2.6-12.8c-0.1-4.3-0.7-7.9-0.7-8.1l-0.4-2.2l-2.2,0.2
		c-0.2,0-3.8,0.3-8,1.1c-6.1,1.3-10,3-11.9,5.5c-2.2,2.8-3.2,6.2-2.7,9.7c0.3,2.8,1.5,5.4,3.4,7.4c-0.7,1.4-1.3,2.9-1.6,4.5
		c-1-1.7-1.9-3.4-2.7-5.2c-0.1-0.2-0.2-0.4-0.3-0.6c-3.5-7.5-5.8-15.8-6.9-24.7c2.5-0.8,4.7-2.3,6.4-4.4c2.2-2.8,3.2-6.2,2.7-9.7
		c-0.4-3.1-2.7-6.6-7.2-10.9C74,8.6,71,6.4,70.9,6.3L69.1,5l-1.4,1.7c-0.1,0.1-2.5,2.9-4.9,6.5c-3.4,5.2-4.9,9.2-4.5,12.3
		C59,31.8,64.2,36.6,70.4,37c0.8,6,2,11.8,3.8,17.2c-2.6-1-5.3-1.3-7.6-1.3c0.2-1.7,0-3.5-0.6-5.2c-1.1-3.4-3.4-6.1-6.5-7.7
		c-1.4-0.7-3.2-1.1-5.4-1.1c-6.5,0-15.1,3.1-15.5,3.3l-2.1,0.8l0.6,2.1c0,0.2,1,3.7,2.7,7.7c2.4,5.7,4.9,9.2,7.6,10.6
		c1.9,1,4,1.5,6,1.5c4.9,0,9.4-2.7,11.7-7c1.6-0.1,8.2-0.5,11.7,3.8c-0.7-0.2-1.5-0.4-2.4-0.4c-3.1,0-6.2,1.7-8.4,4.5
		c-3.5,4.5-3.4,10.3,0.2,13.2c1.2,1,2.8,1.5,4.4,1.5c3.1,0,6.2-1.7,8.4-4.5c1.4-1.7,2.2-3.7,2.5-5.6c2.1,3.5,4.5,6.9,7.2,10.1
		c-4.5,0.3-8.6,2.4-11,4.2l2.9,3.8c0.3-0.3,7.8-5.8,13.9-1.7c1.3,1.3,2.7,2.5,4.2,3.8c-4.3,0.5-8.1,3.1-10.1,7
		c-1.4,2.7-1.4,7-0.1,13.1c0.9,4.2,2.2,7.6,2.3,7.8l0.8,2.1l2.1-0.6c0.2,0,3.7-1,7.7-2.7c5.7-2.4,9.2-4.9,10.6-7.6
		c1.5-2.9,1.8-6.1,1.1-9.1c3.8,2.2,7.8,4.1,12,5.9c4.7,2,9.4,3.7,13.9,5c-6.7,1-11,1.1-11.1,1.1l0.1,4.8c0.6,0,9.7-0.3,22.3-3
		c12.6,2.7,21.7,3,22.3,3l0.1-4.8c-0.1,0-4.4-0.1-11.1-1.1c4.5-1.3,9.2-3,13.9-5c4.2-1.8,8.2-3.8,12-5.9c-0.7,3-0.4,6.2,1.1,9.1
		c1.4,2.7,4.9,5.2,10.6,7.6c4,1.6,7.5,2.6,7.7,2.7l2.1,0.6l0.8-2.1c0.1-0.1,1.3-3.6,2.3-7.8c1.4-6.1,1.3-10.3-0.1-13.1
		c-2-3.9-5.8-6.5-10.1-7c1.4-1.2,2.8-2.5,4.2-3.8c6.1-4.1,13.6,1.5,13.9,1.7l2.9-3.8c-2.3-1.8-6.5-3.9-11-4.2
		c2.7-3.2,5-6.5,7.2-10.1c0.3,1.9,1.1,3.8,2.5,5.6c2.2,2.8,5.3,4.5,8.4,4.5c1.7,0,3.2-0.5,4.4-1.5c1.8-1.4,2.8-3.7,2.8-6.3
		c0-2.4-1-4.8-2.6-6.9c-2.2-2.8-5.3-4.5-8.4-4.5c-0.8,0-1.6,0.1-2.4,0.4c3.4-4.4,10.1-4,11.7-3.8c2.3,4.3,6.7,7,11.6,7h0
		c2.1,0,4.2-0.5,6-1.5c2.7-1.4,5.2-4.9,7.6-10.6c1.6-4,2.6-7.5,2.7-7.7l0.6-2.1l-2.1-0.8C261.7,42.2,253.1,39,246.6,39z M181.4,87.6
		c-0.7,0.2-1.5,0.3-2.2,0.3c-2,0-3.6-0.8-4-2.1c-0.5-1.7,1.5-4,4.2-4.8c0.7-0.2,1.5-0.3,2.2-0.3c2,0,3.6,0.8,4,2.1
		C186.2,84.5,184.2,86.8,181.4,87.6z M189.1,74.2c-0.4,0.3-0.9,0.5-1.5,0.5c-1.5,0-3.3-1-4.6-2.6c-1.8-2.3-2.1-5.3-0.6-6.4
		c0.4-0.3,0.9-0.5,1.5-0.5c1.5,0,3.3,1,4.6,2.6C190.2,70.1,190.5,73,189.1,74.2z M121.3,81c1.5,0.4,2.8,1.3,3.6,2.3
		c0.4,0.5,0.9,1.5,0.6,2.5c-0.4,1.2-2,2.1-4,2.1c-0.7,0-1.5-0.1-2.2-0.3c-2.8-0.8-4.7-3.1-4.2-4.8c0.4-1.2,2-2.1,4-2.1
		C119.8,80.7,120.5,80.8,121.3,81z M112.3,67.8c1.2-1.6,3-2.6,4.6-2.6c0.6,0,1.1,0.2,1.5,0.5c0.8,0.6,0.9,1.8,0.9,2.4
		c0,1.3-0.6,2.8-1.5,4c-1.2,1.6-3,2.6-4.6,2.6c-0.6,0-1.1-0.2-1.5-0.5c-0.8-0.6-0.9-1.8-0.9-2.4C110.8,70.5,111.3,69,112.3,67.8z
		 M61.7,53.3l-9.3-4.8l-2.2,4.3l9.3,4.8c-1.5,1.6-3.7,2.5-6,2.5c-1.3,0-2.6-0.3-3.8-0.9c-2.6-1.3-5.5-7.9-7.2-13.1
		c2.8-0.9,7.8-2.3,11.6-2.3c1.8,0,2.7,0.3,3.2,0.5c2,1,3.4,2.7,4.1,4.9C61.9,50.6,62,52,61.7,53.3z M73.4,21.2l-4.8,0.6l1.2,10.4
		c-3.5-0.6-6.4-3.5-6.8-7.2c-0.3-2.9,3.4-9,6.8-13.3C74.2,15,79.3,20,79.6,23c0.3,2.2-0.4,4.4-1.7,6.1c-0.9,1.1-2,1.9-3.2,2.5
		L73.4,21.2z M75.3,73.1c-1.2,1.6-3,2.6-4.6,2.6c-0.6,0-1.1-0.2-1.5-0.5c-1.4-1.1-1.1-4.1,0.6-6.4c1.2-1.6,3-2.6,4.6-2.6
		c0.6,0,1.1,0.2,1.5,0.5C77.4,67.8,77.1,70.8,75.3,73.1z M88.1,54.5c-0.3-2.2,0.4-4.4,1.7-6.1c1.8-2.3,8.8-3.9,14.2-4.6
		c0.6,5.5,0.7,12.6-1.2,14.9c-1.6,2-4,3.2-6.5,3.2c-1.1,0-2.1-0.2-3-0.6l6.5-8.2l-3.8-3l-6.5,8.2C88.8,57.1,88.3,55.8,88.1,54.5z
		 M107.8,107.5c-1.3,2.6-7.9,5.5-13.1,7.2c-1.7-5.2-3-12.2-1.7-14.8c1.4-2.8,4.3-4.5,7.4-4.5c0.5,0,1,0,1.5,0.1l-4.8,9.3l4.3,2.2
		l4.8-9.3c1,0.9,1.7,2.1,2.1,3.4C109,103.3,108.8,105.5,107.8,107.5z M207.8,99.9c1.3,2.6,0,9.6-1.7,14.8
		c-5.2-1.7-11.7-4.6-13.1-7.2c-1.7-3.3-1-7.3,1.6-9.8l4.8,9.3l4.3-2.2l-4.8-9.3c0.5-0.1,1-0.1,1.5-0.1
		C203.5,95.4,206.3,97.1,207.8,99.9z M211.2,58.2l-6.5-8.2l-3.8,3l6.5,8.2c-1,0.4-2,0.6-3,0.6c-2.6,0-4.9-1.2-6.5-3.2
		c-1.8-2.3-1.8-9.4-1.2-14.9c5.5,0.6,12.4,2.3,14.2,4.6C213.2,51.3,213.2,55.3,211.2,58.2z M224.8,66.7c0.4-0.3,0.9-0.5,1.5-0.5
		c1.5,0,3.3,1,4.6,2.6c1,1.2,1.5,2.7,1.5,4c0,0.6-0.1,1.7-0.9,2.4c-0.4,0.3-0.9,0.5-1.5,0.5c-1.5,0-3.3-1-4.6-2.6
		C223.6,70.8,223.4,67.8,224.8,66.7z M221.1,23c0.3-2.9,5.4-7.9,9.7-11.4c3.4,4.3,7.2,10.4,6.8,13.3c-0.4,3.7-3.2,6.6-6.8,7.2
		l1.2-10.4l-4.8-0.6l-1.2,10.4C222.8,30.1,220.7,26.7,221.1,23z M251,59.2c-1.2,0.6-2.5,0.9-3.8,0.9c-2.3,0-4.4-0.9-6-2.5l9.3-4.8
		l-2.2-4.3l-9.3,4.8c-0.2-1.3-0.2-2.7,0.3-4c0.7-2.1,2.1-3.8,4.1-4.9c0.5-0.2,1.4-0.5,3.2-0.5c3.9,0,8.9,1.4,11.7,2.3
		C256.6,51.4,253.6,57.9,251,59.2z"/>
</g>
</svg>
