<?xml version="1.0" encoding="utf-8"?>
<!-- Generator: Adobe Illustrator 19.0.0, SVG Export Plug-In . SVG Version: 6.00 Build 0)  -->
<!DOCTYPE svg PUBLIC "-//W3C//DTD SVG 1.1//EN" "http://www.w3.org/Graphics/SVG/1.1/DTD/svg11.dtd">
<svg version="1.1" id="Layer_1" xmlns="http://www.w3.org/2000/svg" xmlns:xlink="http://www.w3.org/1999/xlink" x="0px" y="0px"
	 viewBox="0 0 50 50" enable-background="new 0 0 50 50" xml:space="preserve">
<path id="XMLID_11_" fill="#BBBDBF" d="M88.2,1.5C75,1.5,64.4,12.1,64.4,25.2C64.4,38.4,75,49,88.2,49c13.1,0,23.8-10.6,23.8-23.8
	C111.9,12.1,101.3,1.5,88.2,1.5z M93.4,21.2l-0.3,3.5h-3.6v12.4h-4.6V24.8h-2.5v-3.5h2.5v-2.4c0-1,0-2.7,0.8-3.7
	c0.8-1.1,1.9-1.8,3.8-1.8c3.1,0,4.4,0.4,4.4,0.4l-0.6,3.6c0,0-1-0.3-2-0.3c-1,0-1.8,0.3-1.8,1.3v2.8H93.4z"/>
<g id="XMLID_1_">
	<path id="XMLID_12_" fill="#BBBDBF" d="M20.6,25.2c0-0.9,0.3-1.8,0.8-2.4c0.8-1.1,2-1.7,3.4-1.7c1.4,0,2.6,0.7,3.4,1.7
		c0.5,0.7,0.8,1.5,0.8,2.4c0,2.3-1.9,4.2-4.2,4.2C22.5,29.4,20.6,27.5,20.6,25.2z"/>
	<polygon id="XMLID_13_" fill="#BBBDBF" points="29.9,20.1 29.9,16.1 33.4,16.1 33.9,16.1 33.9,20.1 	"/>
	<path id="XMLID_14_" fill="#BBBDBF" d="M30.8,22.8h3.5v9.7c0,1.3-1,2.3-2.3,2.3H17.5c-1.3,0-2.3-1-2.3-2.3v-9.7h3.5
		c-0.3,0.7-0.5,1.6-0.5,2.4c0,3.6,2.9,6.5,6.5,6.5c3.6,0,6.5-2.9,6.5-6.5C31.3,24.4,31.1,23.5,30.8,22.8z"/>
	<path id="XMLID_17_" fill="#BBBDBF" d="M24.8,1.5C11.6,1.5,1,12.1,1,25.2C1,38.4,11.6,49,24.8,49c13.1,0,23.8-10.6,23.8-23.8
		C48.5,12.1,37.9,1.5,24.8,1.5z M36.7,32.5c0,2.5-2.1,4.6-4.6,4.6H17.5c-2.5,0-4.6-2.1-4.6-4.6V17.9c0-2.5,2.1-4.6,4.6-4.6h14.6
		c2.5,0,4.6,2.1,4.6,4.6V32.5z"/>
</g>
</svg>
