<?xml version="1.0" encoding="utf-8"?>
<!-- Generator: Adobe Illustrator 19.0.0, SVG Export Plug-In . SVG Version: 6.00 Build 0)  -->
<!DOCTYPE svg PUBLIC "-//W3C//DTD SVG 1.1//EN" "http://www.w3.org/Graphics/SVG/1.1/DTD/svg11.dtd">
<svg version="1.1" id="Layer_1" xmlns="http://www.w3.org/2000/svg" xmlns:xlink="http://www.w3.org/1999/xlink" x="0px" y="0px"
	 viewBox="0 0 50 50" enable-background="new 0 0 50 50" xml:space="preserve">
<path id="XMLID_11_" fill="#BBBDBF" d="M93.6-64.5c-13.1,0-23.8,10.6-23.8,23.8C69.8-27.6,80.5-17,93.6-17
	c13.1,0,23.8-10.6,23.8-23.8C117.4-53.9,106.7-64.5,93.6-64.5z M98.8-44.8l-0.3,3.5h-3.6v12.4h-4.6v-12.4h-2.5v-3.5h2.5v-2.4
	c0-1,0-2.7,0.8-3.7c0.8-1.1,1.9-1.8,3.8-1.8c3.1,0,4.4,0.4,4.4,0.4l-0.6,3.6c0,0-1-0.3-2-0.3c-1,0-1.8,0.3-1.8,1.3v2.8H98.8z"/>
<g id="XMLID_1_">
	<path id="XMLID_12_" fill="#BBBDBF" d="M26-40.8c0-0.9,0.3-1.8,0.8-2.4c0.8-1.1,2-1.7,3.4-1.7c1.4,0,2.6,0.7,3.4,1.7
		c0.5,0.7,0.8,1.5,0.8,2.4c0,2.3-1.9,4.2-4.2,4.2C27.9-36.6,26-38.5,26-40.8z"/>
	<polygon id="XMLID_13_" fill="#BBBDBF" points="35.3,-45.9 35.3,-49.9 38.8,-49.9 39.3,-49.9 39.3,-45.9 	"/>
	<path id="XMLID_14_" fill="#BBBDBF" d="M36.2-43.2h3.5v9.7c0,1.3-1,2.3-2.3,2.3H22.9c-1.3,0-2.3-1-2.3-2.3v-9.7h3.5
		c-0.3,0.7-0.5,1.6-0.5,2.4c0,3.6,2.9,6.5,6.5,6.5c3.6,0,6.5-2.9,6.5-6.5C36.7-41.6,36.5-42.4,36.2-43.2z"/>
	<path id="XMLID_17_" fill="#BBBDBF" d="M30.2-64.5c-13.1,0-23.8,10.6-23.8,23.8C6.4-27.6,17.1-17,30.2-17C43.3-17,54-27.6,54-40.8
		C54-53.9,43.3-64.5,30.2-64.5z M42.1-33.5c0,2.5-2.1,4.6-4.6,4.6H22.9c-2.5,0-4.6-2.1-4.6-4.6V-48c0-2.5,2.1-4.6,4.6-4.6h14.6
		c2.5,0,4.6,2.1,4.6,4.6V-33.5z"/>
</g>
<path id="XMLID_21_" fill="#BBBDBF" d="M-39-64.8c-13.1,0-23.8,10.6-23.8,23.8c0,13.1,10.6,23.8,23.8,23.8
	c13.1,0,23.8-10.6,23.8-23.8C-15.2-54.1-25.8-64.8-39-64.8z M-29.5-45.1c0,0.2,0,0.4,0,0.6c0,6.4-4.9,13.9-13.9,13.9
	c-2.8,0-5.3-0.8-7.5-2.2c0.4,0,0.8,0.1,1.2,0.1c2.3,0,4.4-0.8,6.1-2.1c-2.1,0-3.9-1.5-4.6-3.4c0.3,0,0.6,0.1,0.9,0.1
	c0.4,0,0.9-0.1,1.3-0.2c-2.2-0.4-3.9-2.4-3.9-4.8v-0.1c0.6,0.4,1.4,0.6,2.2,0.6c-1.3-0.9-2.2-2.4-2.2-4.1c0-0.9,0.2-1.7,0.7-2.5
	c2.4,3,6,4.9,10.1,5.1c-0.1-0.3-0.1-0.7-0.1-1.1c0-2.7,2.2-4.9,4.9-4.9c1.4,0,2.7,0.6,3.6,1.5c1.1-0.2,2.2-0.6,3.1-1.2
	c-0.4,1.1-1.1,2.1-2.1,2.7c1-0.1,1.9-0.4,2.8-0.8C-27.7-46.6-28.5-45.8-29.5-45.1z"/>
<circle id="XMLID_2_" fill="none" stroke="#BBBDBF" stroke-miterlimit="10" cx="-37.8" cy="24.8" r="24"/>
<circle id="XMLID_4_" fill="none" stroke="#BBBDBF" stroke-miterlimit="10" cx="24.5" cy="24.8" r="24"/>
<circle id="XMLID_5_" fill="none" stroke="#BBBDBF" stroke-miterlimit="10" cx="87.9" cy="24.8" r="24"/>
<path id="XMLID_24_" fill="#BBBDBF" d="M89.2,20.7h3.9l-0.3,3.5h-3.6v12.4h-4.6V24.3h-2.5v-3.5h2.5v-2.4c0-1,0-2.7,0.8-3.7
	c0.8-1.1,1.9-1.8,3.8-1.8c3.1,0,4.4,0.5,4.4,0.5L93,17c0,0-1-0.3-2-0.3S89.2,17,89.2,18V20.7z"/>
<path id="XMLID_49_" fill="#BBBDBF" d="M31.8,13.4H17.2c-2.5,0-4.6,2.1-4.6,4.6v14.6c0,2.5,2.1,4.6,4.6,4.6h14.6
	c2.5,0,4.6-2.1,4.6-4.6V18C36.4,15.4,34.3,13.4,31.8,13.4z M33.1,16.1h0.5v4l-4,0l0-4L33.1,16.1z M21.1,22.8c0.8-1.1,2-1.7,3.4-1.7
	c1.4,0,2.6,0.7,3.4,1.7c0.5,0.7,0.8,1.5,0.8,2.4c0,2.3-1.9,4.2-4.2,4.2c-2.3,0-4.2-1.9-4.2-4.2C20.3,24.3,20.6,23.5,21.1,22.8z
	 M34.1,32.5c0,1.2-1,2.3-2.3,2.3H17.2c-1.2,0-2.3-1-2.3-2.3v-9.7h3.5c-0.3,0.8-0.5,1.6-0.5,2.4c0,3.6,2.9,6.5,6.5,6.5
	c3.6,0,6.5-2.9,6.5-6.5c0-0.9-0.2-1.7-0.5-2.4h3.6V32.5z"/>
<path id="XMLID_35_" fill="#BBBDBF" d="M-28.2,19.9c0,0.2,0,0.4,0,0.6c0,6.4-4.9,13.9-13.9,13.9c-2.8,0-5.3-0.8-7.5-2.2
	c0.4,0,0.8,0.1,1.2,0.1c2.3,0,4.4-0.8,6.1-2.1c-2.1,0-3.9-1.5-4.6-3.4c0.3,0,0.6,0.1,0.9,0.1c0.4,0,0.9-0.1,1.3-0.2
	c-2.2-0.4-3.9-2.4-3.9-4.8v-0.1c0.6,0.4,1.4,0.6,2.2,0.6c-1.3-0.9-2.2-2.4-2.2-4.1c0-0.9,0.2-1.7,0.7-2.5c2.4,3,6,4.9,10.1,5.1
	c-0.1-0.3-0.1-0.7-0.1-1.1c0-2.7,2.2-4.9,4.9-4.9c1.4,0,2.7,0.6,3.6,1.5c1.1-0.2,2.2-0.6,3.1-1.2c-0.4,1.1-1.1,2.1-2.1,2.7
	c1-0.1,1.9-0.4,2.8-0.8C-26.4,18.4-27.3,19.2-28.2,19.9z"/>
</svg>
