<?xml version="1.0" encoding="utf-8"?>
<!-- Generator: Adobe Illustrator 19.0.0, SVG Export Plug-In . SVG Version: 6.00 Build 0)  -->
<!DOCTYPE svg PUBLIC "-//W3C//DTD SVG 1.1//EN" "http://www.w3.org/Graphics/SVG/1.1/DTD/svg11.dtd">
<svg version="1.1" id="Layer_1" xmlns="http://www.w3.org/2000/svg" xmlns:xlink="http://www.w3.org/1999/xlink" x="0px" y="0px"
	 viewBox="0 0 50 50" enable-background="new 0 0 50 50" xml:space="preserve">
<path id="XMLID_11_" fill="#BBBDBF" d="M156.3-64.5c-13.1,0-23.8,10.6-23.8,23.8c0,13.1,10.6,23.8,23.8,23.8
	c13.1,0,23.8-10.6,23.8-23.8C180.1-53.9,169.4-64.5,156.3-64.5z M161.6-44.8l-0.3,3.5h-3.6v12.4H153v-12.4h-2.5v-3.5h2.5v-2.4
	c0-1,0-2.7,0.8-3.7c0.8-1.1,1.9-1.8,3.8-1.8c3.1,0,4.4,0.4,4.4,0.4l-0.6,3.6c0,0-1-0.3-2-0.3c-1,0-1.8,0.3-1.8,1.3v2.8H161.6z"/>
<g id="XMLID_1_">
	<path id="XMLID_12_" fill="#BBBDBF" d="M88.7-40.8c0-0.9,0.3-1.8,0.8-2.4c0.8-1.1,2-1.7,3.4-1.7c1.4,0,2.6,0.7,3.4,1.7
		c0.5,0.7,0.8,1.5,0.8,2.4c0,2.3-1.9,4.2-4.2,4.2C90.6-36.6,88.7-38.5,88.7-40.8z"/>
	<polygon id="XMLID_13_" fill="#BBBDBF" points="98,-45.9 98,-49.9 101.5,-49.9 102.1,-49.9 102.1,-45.9 	"/>
	<path id="XMLID_14_" fill="#BBBDBF" d="M98.9-43.2h3.5v9.7c0,1.3-1,2.3-2.3,2.3H85.6c-1.3,0-2.3-1-2.3-2.3v-9.7h3.5
		c-0.3,0.7-0.5,1.6-0.5,2.4c0,3.6,2.9,6.5,6.5,6.5c3.6,0,6.5-2.9,6.5-6.5C99.4-41.6,99.2-42.4,98.9-43.2z"/>
	<path id="XMLID_17_" fill="#BBBDBF" d="M92.9-64.5c-13.1,0-23.8,10.6-23.8,23.8C69.2-27.6,79.8-17,92.9-17
		c13.1,0,23.8-10.6,23.8-23.8C116.7-53.9,106-64.5,92.9-64.5z M104.8-33.5c0,2.5-2.1,4.6-4.6,4.6H85.6c-2.5,0-4.6-2.1-4.6-4.6V-48
		c0-2.5,2.1-4.6,4.6-4.6h14.6c2.5,0,4.6,2.1,4.6,4.6V-33.5z"/>
</g>
<path id="XMLID_21_" fill="#BBBDBF" d="M23.8-64.8C10.6-64.8,0-54.1,0-41c0,13.1,10.6,23.8,23.8,23.8c13.1,0,23.8-10.6,23.8-23.8
	C47.5-54.1,36.9-64.8,23.8-64.8z M33.3-45.1c0,0.2,0,0.4,0,0.6c0,6.4-4.9,13.9-13.9,13.9c-2.8,0-5.3-0.8-7.5-2.2
	c0.4,0,0.8,0.1,1.2,0.1c2.3,0,4.4-0.8,6.1-2.1c-2.1,0-3.9-1.5-4.6-3.4c0.3,0,0.6,0.1,0.9,0.1c0.4,0,0.9-0.1,1.3-0.2
	c-2.2-0.4-3.9-2.4-3.9-4.8v-0.1c0.6,0.4,1.4,0.6,2.2,0.6c-1.3-0.9-2.2-2.4-2.2-4.1c0-0.9,0.2-1.7,0.7-2.5c2.4,3,6,4.9,10.1,5.1
	c-0.1-0.3-0.1-0.7-0.1-1.1c0-2.7,2.2-4.9,4.9-4.9c1.4,0,2.7,0.6,3.6,1.5c1.1-0.2,2.2-0.6,3.1-1.2c-0.4,1.1-1.1,2.1-2.1,2.7
	c1-0.1,1.9-0.4,2.8-0.8C35-46.6,34.2-45.8,33.3-45.1z"/>
<circle id="XMLID_2_" fill="none" stroke="#BBBDBF" stroke-miterlimit="10" cx="24.9" cy="24.8" r="24"/>
<circle id="XMLID_4_" fill="none" stroke="#BBBDBF" stroke-miterlimit="10" cx="87.2" cy="24.8" r="24"/>
<circle id="XMLID_5_" fill="none" stroke="#BBBDBF" stroke-miterlimit="10" cx="150.6" cy="24.8" r="24"/>
<path id="XMLID_24_" fill="#BBBDBF" d="M151.9,20.7h3.9l-0.3,3.5h-3.6v12.4h-4.6V24.3h-2.5v-3.5h2.5v-2.4c0-1,0-2.7,0.8-3.7
	c0.8-1.1,1.9-1.8,3.8-1.8c3.1,0,4.4,0.5,4.4,0.5l-0.6,3.6c0,0-1-0.3-2-0.3s-1.8,0.3-1.8,1.3V20.7z"/>
<path id="XMLID_49_" fill="#BBBDBF" d="M94.5,13.4H79.9c-2.5,0-4.6,2.1-4.6,4.6v14.6c0,2.5,2.1,4.6,4.6,4.6h14.6
	c2.5,0,4.6-2.1,4.6-4.6V18C99.1,15.4,97,13.4,94.5,13.4z M95.8,16.1h0.5v4l-4,0l0-4L95.8,16.1z M83.8,22.8c0.8-1.1,2-1.7,3.4-1.7
	c1.4,0,2.6,0.7,3.4,1.7c0.5,0.7,0.8,1.5,0.8,2.4c0,2.3-1.9,4.2-4.2,4.2c-2.3,0-4.2-1.9-4.2-4.2C83,24.3,83.3,23.5,83.8,22.8z
	 M96.8,32.5c0,1.2-1,2.3-2.3,2.3H79.9c-1.2,0-2.3-1-2.3-2.3v-9.7h3.5c-0.3,0.8-0.5,1.6-0.5,2.4c0,3.6,2.9,6.5,6.5,6.5
	c3.6,0,6.5-2.9,6.5-6.5c0-0.9-0.2-1.7-0.5-2.4h3.6V32.5z"/>
<path id="XMLID_35_" fill="#BBBDBF" d="M34.5,19.9c0,0.2,0,0.4,0,0.6c0,6.4-4.9,13.9-13.9,13.9c-2.8,0-5.3-0.8-7.5-2.2
	c0.4,0,0.8,0.1,1.2,0.1c2.3,0,4.4-0.8,6.1-2.1c-2.1,0-3.9-1.5-4.6-3.4c0.3,0,0.6,0.1,0.9,0.1c0.4,0,0.9-0.1,1.3-0.2
	c-2.2-0.4-3.9-2.4-3.9-4.8v-0.1c0.6,0.4,1.4,0.6,2.2,0.6c-1.3-0.9-2.2-2.4-2.2-4.1c0-0.9,0.2-1.7,0.7-2.5c2.4,3,6,4.9,10.1,5.1
	c-0.1-0.3-0.1-0.7-0.1-1.1c0-2.7,2.2-4.9,4.9-4.9c1.4,0,2.7,0.6,3.6,1.5c1.1-0.2,2.2-0.6,3.1-1.2c-0.4,1.1-1.1,2.1-2.1,2.7
	c1-0.1,1.9-0.4,2.8-0.8C36.3,18.4,35.5,19.2,34.5,19.9z"/>
</svg>
