<?xml version="1.0" encoding="utf-8"?>
<!-- Generator: Adobe Illustrator 19.0.0, SVG Export Plug-In . SVG Version: 6.00 Build 0)  -->
<!DOCTYPE svg PUBLIC "-//W3C//DTD SVG 1.1//EN" "http://www.w3.org/Graphics/SVG/1.1/DTD/svg11.dtd">
<svg version="1.1" id="Layer_1" xmlns="http://www.w3.org/2000/svg" xmlns:xlink="http://www.w3.org/1999/xlink" x="0px" y="0px"
	 viewBox="0 0 50 50" enable-background="new 0 0 50 50" xml:space="preserve">
<path id="XMLID_11_" fill="#BBBDBF" d="M157.3,1.5c-13.1,0-23.8,10.6-23.8,23.8c0,13.1,10.6,23.8,23.8,23.8
	c13.1,0,23.8-10.6,23.8-23.8C181.1,12.1,170.4,1.5,157.3,1.5z M162.6,21.2l-0.3,3.5h-3.6v12.4H154V24.8h-2.5v-3.5h2.5v-2.4
	c0-1,0-2.7,0.8-3.7c0.8-1.1,1.9-1.8,3.8-1.8c3.1,0,4.4,0.4,4.4,0.4l-0.6,3.6c0,0-1-0.3-2-0.3c-1,0-1.8,0.3-1.8,1.3v2.8H162.6z"/>
<g id="XMLID_1_">
	<path id="XMLID_12_" fill="#BBBDBF" d="M89.7,25.2c0-0.9,0.3-1.8,0.8-2.4c0.8-1.1,2-1.7,3.4-1.7c1.4,0,2.6,0.7,3.4,1.7
		c0.5,0.7,0.8,1.5,0.8,2.4c0,2.3-1.9,4.2-4.2,4.2C91.6,29.4,89.7,27.5,89.7,25.2z"/>
	<polygon id="XMLID_13_" fill="#BBBDBF" points="99,20.1 99,16.1 102.5,16.1 103.1,16.1 103.1,20.1 	"/>
	<path id="XMLID_14_" fill="#BBBDBF" d="M99.9,22.8h3.5v9.7c0,1.3-1,2.3-2.3,2.3H86.6c-1.3,0-2.3-1-2.3-2.3v-9.7h3.5
		c-0.3,0.7-0.5,1.6-0.5,2.4c0,3.6,2.9,6.5,6.5,6.5c3.6,0,6.5-2.9,6.5-6.5C100.4,24.4,100.2,23.5,99.9,22.8z"/>
	<path id="XMLID_17_" fill="#BBBDBF" d="M93.9,1.5c-13.1,0-23.8,10.6-23.8,23.8C70.2,38.4,80.8,49,93.9,49
		c13.1,0,23.8-10.6,23.8-23.8C117.7,12.1,107,1.5,93.9,1.5z M105.8,32.5c0,2.5-2.1,4.6-4.6,4.6H86.6c-2.5,0-4.6-2.1-4.6-4.6V17.9
		c0-2.5,2.1-4.6,4.6-4.6h14.6c2.5,0,4.6,2.1,4.6,4.6V32.5z"/>
</g>
<path id="XMLID_21_" fill="#BBBDBF" d="M24.8,1.2C11.6,1.2,1,11.9,1,25c0,13.1,10.6,23.8,23.8,23.8c13.1,0,23.8-10.6,23.8-23.8
	C48.5,11.9,37.9,1.2,24.8,1.2z M34.3,20.9c0,0.2,0,0.4,0,0.6c0,6.4-4.9,13.9-13.9,13.9c-2.8,0-5.3-0.8-7.5-2.2
	c0.4,0,0.8,0.1,1.2,0.1c2.3,0,4.4-0.8,6.1-2.1c-2.1,0-3.9-1.5-4.6-3.4c0.3,0,0.6,0.1,0.9,0.1c0.4,0,0.9-0.1,1.3-0.2
	c-2.2-0.4-3.9-2.4-3.9-4.8v-0.1c0.6,0.4,1.4,0.6,2.2,0.6c-1.3-0.9-2.2-2.4-2.2-4.1c0-0.9,0.2-1.7,0.7-2.5c2.4,3,6,4.9,10.1,5.1
	c-0.1-0.3-0.1-0.7-0.1-1.1c0-2.7,2.2-4.9,4.9-4.9c1.4,0,2.7,0.6,3.6,1.5c1.1-0.2,2.2-0.6,3.1-1.2c-0.4,1.1-1.1,2.1-2.1,2.7
	c1-0.1,1.9-0.4,2.8-0.8C36,19.4,35.2,20.2,34.3,20.9z"/>
</svg>
